<?xml version="1.0" encoding="utf-8"?>
<!-- Generator: Adobe Illustrator 16.0.0, SVG Export Plug-In . SVG Version: 6.00 Build 0)  -->
<!DOCTYPE svg PUBLIC "-//W3C//DTD SVG 1.1//EN" "http://www.w3.org/Graphics/SVG/1.1/DTD/svg11.dtd">
<svg version="1.1" xmlns="http://www.w3.org/2000/svg" xmlns:xlink="http://www.w3.org/1999/xlink" x="0px" y="0px" width="189px"
	 height="62.996px" viewBox="0 0 189 62.996" enable-background="new 0 0 189 62.996" xml:space="preserve">
<g id="格点" display="none">
</g>
<g id="图层_1">
</g>
<g id="桌面">
</g>
<g id="导线">
</g>
<g id="Page_1">
	<g id="图层_1_1_">
		<g>
			<polygon fill-rule="evenodd" clip-rule="evenodd" fill="#CB000D" points="83.129,13.388 86.568,13.388 86.545,19.105 
				92.681,19.104 92.681,13.388 96.097,13.372 96.097,27.581 92.681,27.581 92.681,21.863 86.545,21.862 86.545,27.581 
				83.129,27.581 83.129,13.388 			"/>
			<path fill-rule="evenodd" clip-rule="evenodd" fill="#CB000D" d="M98.361,13.372c1.127,0,2.255,0.002,3.383,0.003V27.58h-3.383
				V13.372L98.361,13.372z"/>
			<path fill-rule="evenodd" clip-rule="evenodd" fill="#CB000D" d="M103.977,13.372L103.977,13.372
				c3.076,0,3.529,0.189,4.809,1.835l5.854,7.219v-9.054h3.433v14.205l0.001,0.001h-0.001v0.003h-0.811
				c-2.009-0.001-2.581-0.036-4.684-2.797l-5.167-6.394v9.19h-3.434V13.372L103.977,13.372z"/>
			<path fill-rule="evenodd" clip-rule="evenodd" fill="#005BAC" d="M168.426,25.051h5.586c1.123,0,1.866-0.104,2.241-0.313
				c0.537-0.3,0.805-0.746,0.805-1.343c0-0.687-0.313-1.192-0.939-1.511c-0.827-0.42-2.23-0.27-3.162-0.27
				c-1.729,0-2.976-0.29-3.737-0.874c-0.479-0.367-0.848-0.832-1.118-1.39c-0.268-0.557-0.401-1.154-0.401-1.787
				c0-0.999,0.313-1.912,0.939-2.735c0.61-0.796,1.592-1.264,2.939-1.394c0.453-0.043,1.133-0.064,2.034-0.064h6.199l-0.006,2.531
				h-5.452c-1.022,0-1.703,0.048-2.035,0.124c-0.688,0.157-1.03,0.643-1.03,1.446c0,0.678,0.287,1.137,0.862,1.374
				c0.385,0.16,1.027,0.238,1.924,0.238c1.265,0,2.664-0.085,3.876,0.303c1.079,0.345,1.821,0.939,2.225,1.791
				c0.326,0.686,0.493,1.421,0.493,2.205c0,0.86-0.214,1.635-0.638,2.324c-0.595,0.971-1.496,1.552-2.694,1.737
				c-0.583,0.091-1.456,0.136-2.619,0.136h-6.281L168.426,25.051L168.426,25.051z"/>
			<path fill-rule="evenodd" clip-rule="evenodd" fill="#CB000D" d="M75.062,13.146c0.028,0,0.055,0,0.083,0.001
				c-6.219,5.032-0.007,9.771-0.184,14.658c-3.898-0.056-7.061-3.326-7.061-7.329C67.9,16.439,71.117,13.146,75.062,13.146
				L75.062,13.146z M75.304,13.15c3.221,0.111,5.915,2.417,6.692,5.497H76.69C75.979,16.96,75.192,15.214,75.304,13.15L75.304,13.15
				z M81.997,22.306c-0.795,3.147-3.591,5.487-6.906,5.5c2.133-2.094,2.74-3.854,2.652-5.5H81.997L81.997,22.306z"/>
			<path fill-rule="evenodd" clip-rule="evenodd" fill="#005BAC" d="M144.318,13.146c0.028,0,0.056,0,0.083,0.001
				c-6.175,5.032-0.007,9.771-0.183,14.658c-3.87-0.056-7.009-3.326-7.009-7.329C137.209,16.439,140.403,13.146,144.318,13.146
				L144.318,13.146z M145.525,20.85h5.525v0.001h0.368c-0.189,3.854-3.29,6.94-7.071,6.955c1.961-1.94,2.625-3.595,2.641-5.136
				h-1.463V20.85L145.525,20.85z M144.559,13.15c3.017,0.104,5.568,2.162,6.495,4.981h-5.335
				C145.079,16.603,144.459,15.004,144.559,13.15L144.559,13.15z"/>
			<path fill-rule="evenodd" clip-rule="evenodd" fill="#CB000D" d="M129.539,13.372l6.477,14.209h-3.353l-1.653-3.616h-6.904
				l-1.652,3.616H119.1l6.497-14.209H129.539L129.539,13.372z M129.744,21.195l-1.993-4.36c-0.164-0.328-0.306-0.141-0.38-0.016
				l-1.999,4.376H129.744L129.744,21.195z"/>
			<path fill-rule="evenodd" clip-rule="evenodd" fill="#005BAC" d="M161.204,13.372l6.477,14.209h-3.353l-1.653-3.616h-6.904
				l-1.653,3.616h-3.353l6.497-14.209H161.204L161.204,13.372z M161.41,21.195l-1.993-4.36c-0.164-0.328-0.306-0.141-0.38-0.016
				l-2,4.376H161.41L161.41,21.195z"/>
			<path fill-rule="evenodd" clip-rule="evenodd" fill="#005BAC" d="M160.949,49.231l-0.46,1.312
				c-0.117,0.334-0.491,0.503-0.908,0.503h-0.646l0.017,2.136h1.875c1.196,0,1.982-0.405,2.301-1.238l1.039-2.712H160.949
				L160.949,49.231z M173.609,49.231l0.46,1.312c0.117,0.334,0.491,0.503,0.907,0.503h0.646l-0.017,2.136h-1.875
				c-1.196,0-1.982-0.405-2.301-1.238l-1.038-2.712H173.609L173.609,49.231z M168.682,48.375h6.939v-2.448h-2.009l0.921-1.507
				h-3.313l-0.924,1.507h-1.613v-1.661h-2.771v1.661h-1.625l-0.876-1.507h-3.367l0.877,1.507h-1.984v2.448h6.976v5.195h2.771V48.375
				L168.682,48.375z M158.62,41.11v2.295h17.638c0.463,0.001,0.65,0.09,0.65,0.7v7.572c0,1.246,0.739,1.893,2.222,1.893h1.546
				v-2.604h-0.43c-0.379,0-0.565-0.161-0.565-0.483v-7.45c0-1.655-0.86-1.922-2.083-1.922H158.62L158.62,41.11z M163.365,37.06
				h17.133v-2.321c-6.471,0-11.958,0.005-17.771,0.005c-0.711,0-1.503,0.053-2.013,1.028l-0.811,1.551
				c-0.185,0.353-0.436,0.579-0.826,0.579h-0.602c0.019,0.819-0.016,1.523-0.016,2.342h21.985v-2.161l-17.634-0.057
				C163.055,37.696,163.193,37.437,163.365,37.06L163.365,37.06z"/>
			<path fill-rule="evenodd" clip-rule="evenodd" fill="#CB000D" d="M80.551,39.584c2.378,0,3.565,0,5.943,0
				c0.203,0,0.476,0.072,0.476,0.443v8.092c0,0.317-0.205,0.487-0.594,0.487h-5.825V39.584L80.551,39.584z M90.093,49.416
				c0-3.938,0-6.529,0-10.467c0-1.11-0.3-2.076-2.364-2.077h-1.585h-5.592l0.005-2.304h-3.129v2.304h-5.597h-1.3
				c-2.389,0.001-2.654,1.145-2.654,2.5v9.319v1.312v1.328l3.12-0.025l-0.005-11.337c0-0.213,0.116-0.384,0.46-0.385h5.976v9.022
				h-3.266c-1.662,0.001-2.409,1.49-2.4,2.725h5.667v2.408h3.124v-2.408h7.224C89.305,51.331,90.076,50.694,90.093,49.416
				L90.093,49.416z"/>
			<g>
				<path fill-rule="evenodd" clip-rule="evenodd" fill="#005BAC" d="M143.415,48.113l0.262,3.597
					c0.122,1.693,1.039,1.86,2.134,1.86h1.098v-2.42h-0.474c-0.362,0-0.349-0.341-0.381-0.676l-0.228-2.361H143.415L143.415,48.113z
					"/>
				<path fill-rule="evenodd" clip-rule="evenodd" fill="#005BAC" d="M147.07,48.113l0.262,3.597c0.122,1.693,1.039,1.86,2.135,1.86
					h1.098v-2.42h-0.474c-0.363,0-0.349-0.341-0.381-0.676l-0.229-2.361H147.07L147.07,48.113z"/>
				<path fill-rule="evenodd" clip-rule="evenodd" fill="#005BAC" d="M135.477,41.681c-0.058,1.306-0.499,1.799-2.001,1.835
					l1.705,7.107c0.095,0.399,0.212,0.527,0.482,0.529l0.408,0.003c0.493,0.002,0.426-0.782,0.481-1.164l0.271-1.878h2.381
					l-0.435,3.726c-0.075,1.05-1.213,1.755-2.325,1.731h-1.128c-1.249,0-2.126-0.28-2.453-1.447l-0.66-2.6l-0.617,2.624
					c-0.233,0.992-1.127,1.423-1.82,1.423h-1.403l-0.015-2.427h0.247c0.269,0,0.544-0.16,0.63-0.538l1.512-7.122
					c-1.608-0.022-2.059-0.706-2.123-1.74l-0.178-6.763h1.483l0.201,6.267c0.021,0.304,0.432,0.249,0.65,0.249v-6.758h2.707v6.834
					c0.264,0,0.604,0.005,0.625-0.306l0.22-6.286h1.404L135.477,41.681L135.477,41.681z"/>
				<path fill-rule="evenodd" clip-rule="evenodd" fill="#005BAC" d="M139.805,48.113l0.262,3.597
					c0.122,1.693,1.039,1.86,2.134,1.86h1.099v-2.42h-0.474c-0.362,0-0.349-0.341-0.38-0.676l-0.229-2.361H139.805L139.805,48.113z"
					/>
				<path fill-rule="evenodd" clip-rule="evenodd" fill="#005BAC" d="M141.321,37.324l-0.698,2.263
					c-0.204,0.014-0.488-0.975-0.578-1.197h-1.043l0.33-1.068c0.074-0.292,0.255-0.299,0.431-0.305c0.429,0.001,0.859,0.001,1.288,0
					C141.268,37.018,141.41,37.021,141.321,37.324L141.321,37.324z M143.184,44.635c-0.092,0.313-0.212,0.498-0.454,0.498h-0.485
					v2.289h1.747c1.04-0.013,1.396-0.703,1.624-1.742l0.815-2.609l0.85,2.841c0.306,1.023,0.862,1.511,2.155,1.511h0.994v-2.289
					h-0.25c-0.351,0-0.404,0.007-0.497-0.301l-1.662-5.56h0.731c0.827,0,1.77-0.415,1.76-1.839c-0.004-0.69-0.006-1.656-0.005-2.355
					h-1.77l0,1.565c-0.001,0.279-0.158,0.345-0.302,0.345c-0.234,0-0.468,0-0.702,0v-2.25h-2.728v2.25h-1.077
					c0.313-1.454-0.416-2.249-1.822-2.249l-3.45-0.001c-0.772,0-1.168,0.071-1.409,0.963c-0.19,0.659-0.381,1.317-0.572,1.977
					c-0.097,0.273-0.343,0.246-0.551,0.26v2.029l0.573-0.002c0.646,0,1.304-0.129,1.685-0.613l0.224,0.633
					c0.233,0.744,0.738,1.006,1.489,1.02h0.111l-0.476,1.634c-0.27,0-0.681,0.086-0.959-0.637l-0.284-1.114h-2.324l0.595,2.126
					c0.362,0.841,0.946,1.221,1.687,1.223l0.818,0.001l-0.104,0.339c-0.15,0.36-0.42,0.548-0.812,0.558h-2.603l-0.013,2.289h3.512
					c1.216,0,1.782-0.403,2.143-1.21c0.207-0.704,1.249-4.151,2.095-6.939h1.299L143.184,44.635L143.184,44.635z"/>
			</g>
			<g>
				<path fill-rule="evenodd" clip-rule="evenodd" fill="#CB000D" d="M120.572,51.619v-14.33c0-1.844-0.413-2.552-2.563-2.552
					c-5.607,0-11.214,0.001-16.823,0.001c-2.537,0-2.829,0.977-2.829,2.805c0,5.415,0,10.615,0,16.027h2.92V51.06h-0.002
					c0-4.365,0-8.73,0-13.096c0.001-0.415,0.086-0.706,0.739-0.706c5.006,0,10.012,0,15.018,0c0.409,0.001,0.618,0.102,0.617,0.61
					v12.692c0,0.332-0.201,0.499-0.594,0.499h-12.808c-1.481-0.001-2.279,1.406-2.313,2.511h16.299
					C119.773,53.57,120.556,52.919,120.572,51.619L120.572,51.619z"/>
				<path fill-rule="evenodd" clip-rule="evenodd" fill="#CB000D" d="M115.783,44.917l0.404-3.578h-1.925l-0.366,2.784
					c-0.06,0.474-0.155,0.647-0.578,0.596l-0.766-3.99h2.15c1.303,0.001,1.385-0.7,1.379-1.348l-0.006-1.093h-2.153l-0.001,0.224
					c-0.002,0.201-0.059,0.285-0.34,0.285h-1.414l-0.119-0.603h-2.115l0.095,0.603h-7.286v1.932h7.671l0.815,4.197h-0.985
					l-0.017,2.01h1.308l0.341,1.624c0.214,1.021,0.898,1.554,2.352,1.554h1.865v-1.996h-1.379c-0.333,0-0.607-0.165-0.689-0.475
					l-0.223-0.835C114.872,46.801,115.624,46.327,115.783,44.917L115.783,44.917z M104.869,43.253h2.601
					c0.192,0.001,0.245,0.145,0.245,0.248v1.586c0,0.301-0.201,0.515-0.598,0.515h-0.458c-0.873-0.001-1.562,0.379-1.562,1.807
					l2.784-0.044c1.119-0.018,1.667-0.738,1.681-1.747v-3.234c0-0.774-0.417-0.807-0.849-0.807h-5.016
					c-0.85,0-0.929,0.293-0.929,0.821l-0.008,5.011h1.886c0-1.313-0.011-2.622-0.011-3.936
					C104.635,43.307,104.724,43.253,104.869,43.253L104.869,43.253z M102.742,48.119v1.994h7.011v-1.994H102.742L102.742,48.119z"/>
			</g>
			<g>
				<g>
					
						<linearGradient id="SVGID_1_" gradientUnits="userSpaceOnUse" x1="2878.5625" y1="-1350.2646" x2="2878.5625" y2="-1367.7568" gradientTransform="matrix(0.1989 0 0 0.1989 -535.1637 326.2849)">
						<stop  offset="0" style="stop-color:#0068B7"/>
						<stop  offset="0.41" style="stop-color:#0068B7"/>
						<stop  offset="1" style="stop-color:#00B9EF"/>
					</linearGradient>
					<path fill-rule="evenodd" clip-rule="evenodd" fill="url(#SVGID_1_)" d="M43.024,54.785c-3.367,1.777-7.177,2.818-11.215,2.907
						v-3.479L43.024,54.785L43.024,54.785z"/>
					
						<linearGradient id="SVGID_2_" gradientUnits="userSpaceOnUse" x1="2860.5703" y1="-1349.2124" x2="2860.5703" y2="-1369.5962" gradientTransform="matrix(0.1989 0 0 0.1989 -528.006 320.6765)">
						<stop  offset="0" style="stop-color:#0068B7"/>
						<stop  offset="0.41" style="stop-color:#0068B7"/>
						<stop  offset="1" style="stop-color:#00B9EF"/>
					</linearGradient>
					<path fill-rule="evenodd" clip-rule="evenodd" fill="url(#SVGID_2_)" d="M50.182,49.177c-0.716,0.803-1.48,1.562-2.291,2.268
						l-16.082,0.85v-4.055L50.182,49.177L50.182,49.177z"/>
					
						<linearGradient id="SVGID_3_" gradientUnits="userSpaceOnUse" x1="2850.8223" y1="-1350.2129" x2="2850.8223" y2="-1370.0811" gradientTransform="matrix(0.1989 0 0 0.1989 -524.1281 314.9012)">
						<stop  offset="0" style="stop-color:#0068B7"/>
						<stop  offset="0.41" style="stop-color:#0068B7"/>
						<stop  offset="1" style="stop-color:#00B9EF"/>
					</linearGradient>
					<path fill-rule="evenodd" clip-rule="evenodd" fill="url(#SVGID_3_)" d="M54.06,43.401c-0.299,0.612-0.622,1.211-0.967,1.795
						l-21.284,1.123v-1.724c0-0.476,0.047-0.809,0.489-1.11c0.553-0.375,1.054-0.748,1.507-1.118L54.06,43.401L54.06,43.401z"/>
					
						<linearGradient id="SVGID_4_" gradientUnits="userSpaceOnUse" x1="2856.3184" y1="-1351.8433" x2="2856.3184" y2="-1369.6543" gradientTransform="matrix(0.1989 0 0 0.1989 -522.1105 309.0291)">
						<stop  offset="0" style="stop-color:#0068B7"/>
						<stop  offset="0.41" style="stop-color:#0068B7"/>
						<stop  offset="1" style="stop-color:#00B9EF"/>
					</linearGradient>
					<path fill-rule="evenodd" clip-rule="evenodd" fill="url(#SVGID_4_)" d="M56.077,37.529c-0.11,0.524-0.236,1.043-0.378,1.556
						l-19.686,1.038c0.903-1.204,1.344-2.383,1.459-3.543L56.077,37.529L56.077,37.529z"/>
					
						<linearGradient id="SVGID_5_" gradientUnits="userSpaceOnUse" x1="2854.3438" y1="-1352.3081" x2="2854.3438" y2="-1370.2324" gradientTransform="matrix(0.1989 0 0 0.1989 -521.5812 303.0828)">
						<stop  offset="0" style="stop-color:#0068B7"/>
						<stop  offset="0.41" style="stop-color:#0068B7"/>
						<stop  offset="1" style="stop-color:#00B9EF"/>
					</linearGradient>
					<path fill-rule="evenodd" clip-rule="evenodd" fill="url(#SVGID_5_)" d="M56.606,31.583c0.007,0.244,0.012,0.49,0.012,0.736
						c0,0.248-0.004,0.496-0.012,0.743l-19.345,1.021c-0.302-1.2-0.86-2.386-1.516-3.565L56.606,31.583L56.606,31.583z"/>
					
						<linearGradient id="SVGID_6_" gradientUnits="userSpaceOnUse" x1="2848.7822" y1="-1351.3218" x2="2848.7822" y2="-1370.8955" gradientTransform="matrix(0.1989 0 0 0.1989 -522.4874 297.0623)">
						<stop  offset="0" style="stop-color:#0068B7"/>
						<stop  offset="0.41" style="stop-color:#0068B7"/>
						<stop  offset="1" style="stop-color:#00B9EF"/>
					</linearGradient>
					<path fill-rule="evenodd" clip-rule="evenodd" fill="url(#SVGID_6_)" d="M55.7,25.563c0.142,0.512,0.269,1.03,0.379,1.554
						l-21.67,1.144c-0.789-1.294-1.575-2.588-2.15-3.894L55.7,25.563L55.7,25.563z"/>
					
						<linearGradient id="SVGID_7_" gradientUnits="userSpaceOnUse" x1="2855.6631" y1="-1350.0303" x2="2855.6631" y2="-1370.3447" gradientTransform="matrix(0.1989 0 0 0.1989 -525.088 290.9558)">
						<stop  offset="0" style="stop-color:#0068B7"/>
						<stop  offset="0.41" style="stop-color:#0068B7"/>
						<stop  offset="1" style="stop-color:#00B9EF"/>
					</linearGradient>
					<path fill-rule="evenodd" clip-rule="evenodd" fill="url(#SVGID_7_)" d="M53.1,19.456c0.345,0.583,0.668,1.181,0.966,1.793
						l-21.996,1.16c-0.195,0.018-0.26-0.225-0.26-0.377v-3.663L53.1,19.456L53.1,19.456z"/>
					
						<linearGradient id="SVGID_8_" gradientUnits="userSpaceOnUse" x1="2871.9873" y1="-1348.6372" x2="2871.9873" y2="-1369.0161" gradientTransform="matrix(0.1989 0 0 0.1989 -530.2687 284.7176)">
						<stop  offset="0" style="stop-color:#0068B7"/>
						<stop  offset="0.41" style="stop-color:#0068B7"/>
						<stop  offset="1" style="stop-color:#00B9EF"/>
					</linearGradient>
					<path fill-rule="evenodd" clip-rule="evenodd" fill="url(#SVGID_8_)" d="M47.919,13.218c0.806,0.705,1.567,1.461,2.279,2.262
						l-18.389,0.97v-4.054L47.919,13.218L47.919,13.218z"/>
					
						<linearGradient id="SVGID_9_" gradientUnits="userSpaceOnUse" x1="2935.2539" y1="-1347.1328" x2="2935.2539" y2="-1364.875" gradientTransform="matrix(0.1989 0 0 0.1989 -546.4127 278.4451)">
						<stop  offset="0" style="stop-color:#0068B7"/>
						<stop  offset="0.41" style="stop-color:#0068B7"/>
						<stop  offset="1" style="stop-color:#00B9EF"/>
					</linearGradient>
					<path fill-rule="evenodd" clip-rule="evenodd" fill="url(#SVGID_9_)" d="M31.809,6.946c4.061,0.089,7.89,1.141,11.27,2.935
						l-11.27,0.595V6.946L31.809,6.946z"/>
				</g>
				
					<linearGradient id="SVGID_10_" gradientUnits="userSpaceOnUse" x1="2844.2188" y1="-1364.8867" x2="2844.2188" y2="-1619.9922" gradientTransform="matrix(0.1989 0 0 0.1989 -547.4723 329.1922)">
					<stop  offset="0" style="stop-color:#CB000D"/>
					<stop  offset="0.34" style="stop-color:#CB000D"/>
					<stop  offset="0.55" style="stop-color:#E60012"/>
					<stop  offset="1" style="stop-color:#FFE100"/>
				</linearGradient>
				<path fill-rule="evenodd" clip-rule="evenodd" fill="url(#SVGID_10_)" d="M30.681,57.691
					C16.965,57.39,5.872,46.109,5.872,32.319S16.965,7.248,30.681,6.946v12.829c0,0.596-0.203,1.069-0.688,1.46
					c-10.732,8.556-1.17,13.226,0.552,20.345c0.112,0.461,0.135,0.855,0.135,1.323V57.691L30.681,57.691z"/>
			</g>
		</g>
	</g>
</g>
</svg>
